<?xml version="1.0" encoding="UTF-8"?>
<svg version="1.1" xmlns="http://www.w3.org/2000/svg" width="228" height="192">
<path d="M0 0 C75.24 0 150.48 0 228 0 C228 63.36 228 126.72 228 192 C152.76 192 77.52 192 0 192 C0 128.64 0 65.28 0 0 Z " fill="#F3FEE5" transform="translate(0,0)"/>
<path d="M0 0 C2.7265625 1.80078125 2.7265625 1.80078125 4.95629883 4.36914062 C8.43162434 7.41965989 10.2078024 7.44947793 14.77734375 7.5078125 C15.76555367 7.53049446 15.76555367 7.53049446 16.77372742 7.55363464 C18.8625245 7.59636691 20.9498727 7.6053339 23.0390625 7.61328125 C24.46162667 7.63643739 25.88415667 7.66180508 27.30664062 7.68945312 C30.77992054 7.75215741 34.25271863 7.78460909 37.7265625 7.80078125 C37.71278564 8.51145752 37.69900879 9.22213379 37.68481445 9.9543457 C37.53498187 23.32324238 40.08206516 41.33403524 47.7265625 52.80078125 C47.94872318 55.47247983 48.05108895 58.00590996 48.0390625 60.67578125 C48.05517578 61.38347656 48.07128906 62.09117188 48.08789062 62.8203125 C48.09211014 67.35206984 47.50711386 70.20512736 44.7265625 73.80078125 C41.54638967 76.47501749 39.38601004 77.6808817 35.2890625 78.42578125 C30.52274552 77.58958529 27.94910534 75.3146274 24.7265625 71.80078125 C23.35184574 69.05134774 23.4993136 66.66185058 23.35546875 63.58984375 C22.77303222 54.65611082 20.82054609 46.18279945 18.81054688 37.48046875 C17.1129661 29.78586535 16.34272072 22.67906579 16.7265625 14.80078125 C15.4065625 15.13078125 14.0865625 15.46078125 12.7265625 15.80078125 C12.77296875 16.77917969 12.819375 17.75757812 12.8671875 18.765625 C13.12834235 28.25114233 12.16286233 34.64633151 6.8515625 42.61328125 C4.7265625 44.80078125 4.7265625 44.80078125 1.62890625 46.2890625 C-1.41481353 48.42244739 -1.41481353 48.42244739 -1.7734375 50.99438477 C-1.91034698 53.73438939 -1.90919539 56.43330657 -1.8359375 59.17578125 C-1.59781481 69.6243163 -1.59781481 69.6243163 -4.68359375 73.37890625 C-8.1774502 76.64616266 -9.8664394 77.58840418 -14.5859375 78.30078125 C-19.49782594 77.63476248 -21.98237623 75.38933958 -25.2734375 71.80078125 C-26.4998132 69.34802984 -26.38759064 67.75020315 -26.37109375 65.01171875 C-26.36787109 64.07070312 -26.36464844 63.1296875 -26.36132812 62.16015625 C-26.34875977 60.68289062 -26.34875977 60.68289062 -26.3359375 59.17578125 C-26.33142578 58.18320313 -26.32691406 57.190625 -26.32226562 56.16796875 C-26.31045895 53.71217965 -26.2939915 51.25651021 -26.2734375 48.80078125 C-27.01335937 48.55457031 -27.75328125 48.30835938 -28.515625 48.0546875 C-34.43099022 45.36512343 -38.96683564 39.50741372 -41.2734375 33.48828125 C-42.79072244 27.98326023 -43.89015469 20.03421562 -41.2734375 14.80078125 C-42.5934375 14.80078125 -43.9134375 14.80078125 -45.2734375 14.80078125 C-45.25168457 15.38778809 -45.22993164 15.97479492 -45.20751953 16.57958984 C-45.06754843 23.39018355 -45.90501117 29.74126242 -47.1484375 36.42578125 C-47.32246094 37.410625 -47.49648437 38.39546875 -47.67578125 39.41015625 C-48.44328702 43.67407722 -49.26016449 47.88206187 -50.38671875 52.06640625 C-51.2708119 55.78972367 -51.50482996 59.10945789 -51.5859375 62.92578125 C-52.03355682 70.39143199 -52.03355682 70.39143199 -54.5859375 73.55078125 C-58.1847655 76.56375353 -59.93570694 77.59885966 -64.5859375 78.30078125 C-69.45099876 77.64111193 -72.10496087 75.47943632 -75.2734375 71.80078125 C-76.48089585 68.1784062 -76.49589779 64.82372175 -76.5234375 61.05078125 C-76.5440625 60.35984375 -76.5646875 59.66890625 -76.5859375 58.95703125 C-76.62389616 53.90852931 -75.50153414 50.40839857 -73.2734375 45.80078125 C-68.51750196 33.35142058 -66.00059049 21.11723109 -66.2734375 7.80078125 C-65.01853516 7.81032837 -65.01853516 7.81032837 -63.73828125 7.82006836 C-60.5989319 7.8272388 -57.46175811 7.8029211 -54.32275391 7.75805664 C-52.31031007 7.73863706 -50.29762404 7.75473024 -48.28515625 7.77148438 C-39.72338457 7.67634605 -39.72338457 7.67634605 -32.60546875 3.39453125 C-32.04835205 2.78158203 -31.49123535 2.16863281 -30.91723633 1.53710938 C-22.2683242 -7.59864928 -9.92295674 -5.17545048 0 0 Z " fill="#5C9649" transform="translate(128.2734375,24.19921875)"/>
<path d="M0 0 C9.57 0 19.14 0 29 0 C29 3.63 29 7.26 29 11 C30.3593227 21.73091335 32.90824892 35.86237337 39 45 C39.22216068 47.67169858 39.32452645 50.20512871 39.3125 52.875 C39.32861328 53.58269531 39.34472656 54.29039063 39.36132812 55.01953125 C39.36554764 59.55128859 38.78055136 62.40434611 36 66 C32.81982717 68.67423624 30.65944754 69.88010045 26.5625 70.625 C21.79618302 69.78880404 19.22254284 67.51384615 16 64 C14.62528324 61.25056649 14.7727511 58.86106933 14.62890625 55.7890625 C14.04646972 46.85532957 12.09398359 38.3820182 10.08398438 29.6796875 C8.3864036 21.9850841 7.61615822 14.87828454 8 7 C6.81857422 7.07347656 6.81857422 7.07347656 5.61328125 7.1484375 C4.75089844 7.09945312 3.88851562 7.05046875 3 7 C1.18116991 4.6167054 0 3.04181663 0 0 Z " fill="#81C45B" transform="translate(137,32)"/>
<path d="M0 0 C9.57 0 19.14 0 29 0 C28.01 2.64 27.02 5.28 26 8 C23.525 7.505 23.525 7.505 21 7 C21.02175293 7.58700684 21.04350586 8.17401367 21.06591797 8.77880859 C21.20588907 15.5894023 20.36842633 21.94048117 19.125 28.625 C18.86396484 30.10226563 18.86396484 30.10226563 18.59765625 31.609375 C17.83015048 35.87329597 17.01327301 40.08128062 15.88671875 44.265625 C15.0026256 47.98894242 14.76860754 51.30867664 14.6875 55.125 C14.23988068 62.59065074 14.23988068 62.59065074 11.6875 65.75 C8.088672 68.76297228 6.33773056 69.79807841 1.6875 70.5 C-3.17756126 69.84033068 -5.83152337 67.67865507 -9 64 C-10.20745835 60.37762495 -10.22246029 57.0229405 -10.25 53.25 C-10.270625 52.5590625 -10.29125 51.868125 -10.3125 51.15625 C-10.35045866 46.10774806 -9.22809664 42.60761732 -7 38 C-2.17704618 25.37520911 0 13.54438425 0 0 Z " fill="#81C45B" transform="translate(62,32)"/>
<path d="M0 0 C1.65 0 3.3 0 5 0 C5.08636719 0.94875 5.17273438 1.8975 5.26171875 2.875 C6.26312307 12.85033557 8.0205748 22.51094931 10.32299805 32.27148438 C12.09809192 40.15961165 13.8825596 48.94525625 10.375 56.5 C6.71488121 60.35275662 3.86678511 62.66058452 -1.4375 63.625 C-6.22595888 62.7849195 -8.75730926 60.51647993 -12 57 C-14.82365435 52.76451847 -14.48093794 49.11092414 -14.5625 44.125 C-14.61212891 43.22652344 -14.66175781 42.32804687 -14.71289062 41.40234375 C-14.81400411 34.88293134 -14.81400411 34.88293134 -12.50073242 32.3737793 C-10.71567732 31.13415119 -8.88999893 30.06955719 -7 29 C-5.30052158 27.29577092 -5.30052158 27.29577092 -4.1875 25.5625 C-3.62095703 24.76005859 -3.62095703 24.76005859 -3.04296875 23.94140625 C-0.11502672 18.49126696 0.26674577 13.65464696 0.125 7.625 C0.11597656 6.88894531 0.10695312 6.15289062 0.09765625 5.39453125 C0.07430144 3.5962112 0.03843836 1.79806089 0 0 Z " fill="#E1E5B5" transform="translate(140,39)"/>
<path d="M0 0 C1.32 0 2.64 0 4 0 C3.93039063 1.34191406 3.93039063 1.34191406 3.859375 2.7109375 C3.53546157 13.5620375 5.07820992 21.29479509 12.33984375 29.52734375 C14.01431411 31.17653388 14.01431411 31.17653388 16.6484375 32.08203125 C19 34 19 34 19.49731445 35.99780273 C19.71400356 38.59938209 19.7306252 41.13998817 19.6875 43.75 C19.71521484 44.63171875 19.74292969 45.5134375 19.77148438 46.421875 C19.74994312 52.21216513 18.66670271 55.41094335 14.67895508 59.63378906 C11.75639409 62.0119556 9.42248552 62.9362286 5.6875 63.5 C0.79136016 62.83611663 -1.80124886 60.67982981 -5 57 C-9.8913808 48.9883513 -6.63852421 37.84832143 -4.625 29.3125 C-2.4498413 19.56510347 -0.90500243 9.94151922 0 0 Z " fill="#E2E6B5" transform="translate(83,39)"/>
<path d="M0 0 C1.07507813 0.32484375 2.15015625 0.6496875 3.2578125 0.984375 C9.10399633 2.57102197 13.95162275 2.33166765 19.7578125 0.984375 C20.55590332 0.80100586 21.35399414 0.61763672 22.17626953 0.42871094 C22.77810059 0.28723633 23.37993164 0.14576172 24 0 C24.14611313 3.37453898 24.23433467 6.74825766 24.3125 10.125 C24.35439453 11.07632813 24.39628906 12.02765625 24.43945312 13.0078125 C24.5775874 20.96434668 24.5775874 20.96434668 21.59765625 24.59375 C18.09457695 27.83870767 16.40047137 28.7886081 11.6875 29.5 C6.77561156 28.83398123 4.29106127 26.58855833 1 23 C-0.2263757 20.54724859 -0.11415314 18.9494219 -0.09765625 16.2109375 C-0.09443359 15.26992187 -0.09121094 14.32890625 -0.08789062 13.359375 C-0.07951172 12.37453125 -0.07113281 11.3896875 -0.0625 10.375 C-0.05798828 9.38242188 -0.05347656 8.38984375 -0.04882812 7.3671875 C-0.03702145 4.9113984 -0.020554 2.45572896 0 0 Z " fill="#73BE52" transform="translate(102,73)"/>
<path d="M0 0 C2.31 0 4.62 0 7 0 C8.99609375 2.1171875 8.99609375 2.1171875 10.4375 4.875 C10.93121094 5.77992187 11.42492187 6.68484375 11.93359375 7.6171875 C13 10 13 10 13 12 C13.66 12 14.32 12 15 12 C15.2475 11.319375 15.495 10.63875 15.75 9.9375 C17.24197908 6.43134917 19.06835511 3.28379632 21 0 C23.31 0 25.62 0 28 0 C28 9.24 28 18.48 28 28 C26.02 28 24.04 28 22 28 C21.67 23.38 21.34 18.76 21 14 C18.03 18.95 18.03 18.95 15 24 C10.18088483 22.39362828 9.29335557 18.4007634 7 14 C6.67 18.62 6.34 23.24 6 28 C4.02 28 2.04 28 0 28 C0 18.76 0 9.52 0 0 Z " fill="#E8EBBB" transform="translate(100,33)"/>
<path d="M0 0 C7.92 0 15.84 0 24 0 C24.40745563 13.44603577 24.40745563 13.44603577 21 18 C17.81982717 20.67423624 15.65944754 21.88010045 11.5625 22.625 C6.79618302 21.78880404 4.22254284 19.51384615 1 16 C-1.23102556 11.53794887 -0.04346299 4.78092876 0 0 Z " fill="#73BE52" transform="translate(152,80)"/>
<path d="M0 0 C7.92 0 15.84 0 24 0 C24.66964286 14.19642857 24.66964286 14.19642857 21.75 17.75 C18.10911718 20.72890412 16.34880595 21.79640665 11.6875 22.5 C6.82243874 21.84033068 4.16847663 19.67865507 1 16 C-0.7213061 10.83608171 -0.05353552 5.40708764 0 0 Z " fill="#73BE52" transform="translate(52,80)"/>
<path d="M0 0 C2.97551795 1.77603298 5.42755188 3.85510377 7 7 C7.04227317 11.37950088 6.78687799 14.95082935 4.125 18.5 C0.19682523 21.27282925 -3.29896379 21.48631409 -8 21 C-10.63016161 18.8272578 -12.47336894 17.05326212 -14 14 C-14.57884232 6.93812375 -14.57884232 6.93812375 -12.1875 3.0625 C-8.47519929 -0.43766924 -4.93407072 -0.5017699 0 0 Z " fill="#598C48" transform="translate(143,121)"/>
<path d="M0 0 C1.65 0 3.3 0 5 0 C6.58203125 1.75 6.58203125 1.75 7.8125 4 C8.23144531 4.7425 8.65039062 5.485 9.08203125 6.25 C9.38496094 6.8275 9.68789063 7.405 10 8 C10.43699219 7.13375 10.43699219 7.13375 10.8828125 6.25 C11.29273438 5.5075 11.70265625 4.765 12.125 4 C12.71667969 2.88625 12.71667969 2.88625 13.3203125 1.75 C14.15175781 0.88375 14.15175781 0.88375 15 0 C16.98 0 18.96 0 21 0 C21 6.93 21 13.86 21 21 C19.02 21 17.04 21 15 21 C14.67 18.36 14.34 15.72 14 13 C13.54625 13.66 13.0925 14.32 12.625 15 C12.08875 15.66 11.5525 16.32 11 17 C10.34 17 9.68 17 9 17 C7.375 14.5 7.375 14.5 6 12 C5.67 14.97 5.34 17.94 5 21 C3.35 21 1.7 21 0 21 C0 14.07 0 7.14 0 0 Z " fill="#5E904E" transform="translate(36,121)"/>
<path d="M0 0 C10.07203115 -0.60674886 10.07203115 -0.60674886 14.25 2.125 C16 5 16 5 15.875 8.0625 C15.3690489 9.76105012 14.8398582 11.45373511 14.25 13.125 C13.76684173 15.16271107 13.76684173 15.16271107 15.4375 17.125 C15.953125 17.74375 16.46875 18.3625 17 19 C17 19.66 17 20.32 17 21 C14.1875 21.3125 14.1875 21.3125 11 21 C9.11400657 18.61107499 8 17.08148442 8 14 C7.01 14 6.02 14 5 14 C5 16.31 5 18.62 5 21 C3.35 21 1.7 21 0 21 C0 14.07 0 7.14 0 0 Z " fill="#598C48" transform="translate(157,121)"/>
<path d="M0 0 C4.29 0 8.58 0 13 0 C13 1.65 13 3.3 13 5 C10.36 5 7.72 5 5 5 C5 5.99 5 6.98 5 8 C7.31 8 9.62 8 12 8 C12 9.32 12 10.64 12 12 C9.69 12 7.38 12 5 12 C5 13.32 5 14.64 5 16 C7.64 16 10.28 16 13 16 C13 17.65 13 19.3 13 21 C8.71 21 4.42 21 0 21 C0 14.07 0 7.14 0 0 Z " fill="#598C48" transform="translate(180,121)"/>
<path d="M0 0 C0.99 0.66 1.98 1.32 3 2 C3 2.99 3 3.98 3 5 C-0.05263664 5.98120464 -1.94736336 5.98120464 -5 5 C-3.50011061 7.99977878 -0.94840874 8.55588143 2 10 C4 12 4 12 4.3125 14.9375 C4 18 4 18 3 19.875 C-0.20329363 21.67685267 -3.46372523 21.53364307 -7 21 C-9.5 19.6875 -9.5 19.6875 -11 18 C-11 17.01 -11 16.02 -11 15 C-7.18510326 13.53273202 -4.70988378 14.56663581 -1 16 C-1 15.01 -1 14.02 -1 13 C-2.11375 12.8453125 -2.11375 12.8453125 -3.25 12.6875 C-6.3366681 11.91583298 -7.86493232 11.37229742 -10 9 C-10.4375 5.4375 -10.4375 5.4375 -10 2 C-6.31282562 -0.45811625 -4.35654296 -0.31118164 0 0 Z " fill="#5A8D49" transform="translate(99,121)"/>
<path d="M0 0 C9.57 0 19.14 0 29 0 C28.01 2.64 27.02 5.28 26 8 C18.08 7.67 10.16 7.34 2 7 C1.67 7.66 1.34 8.32 1 9 C0 7 0 7 0 0 Z " fill="#B9B969" transform="translate(62,32)"/>
<path d="M0 0 C9.57 0 19.14 0 29 0 C29 2.31 29 4.62 29 7 C24.72952167 7.14486019 20.45967167 7.23392616 16.1875 7.3125 C14.97255859 7.35439453 13.75761719 7.39628906 12.50585938 7.43945312 C11.34248047 7.45556641 10.17910156 7.47167969 8.98046875 7.48828125 C7.37014771 7.52755737 7.37014771 7.52755737 5.72729492 7.56762695 C3 7 3 7 1.1262207 4.59448242 C0 2 0 2 0 0 Z " fill="#B59963" transform="translate(137,32)"/>
<path d="M0 0 C5.28 0 10.56 0 16 0 C16 1.65 16 3.3 16 5 C14.35 5 12.7 5 11 5 C11 10.28 11 15.56 11 21 C9.02 21 7.04 21 5 21 C5 15.72 5 10.44 5 5 C3.35 5 1.7 5 0 5 C0 3.35 0 1.7 0 0 Z " fill="#649554" transform="translate(108,121)"/>
<path d="M0 0 C2.3125 -0.25 2.3125 -0.25 5 0 C6.8125 1.8125 6.8125 1.8125 8 4 C8 4.99 8 5.98 8 7 C8.66 7 9.32 7 10 7 C10.309375 6.21625 10.61875 5.4325 10.9375 4.625 C12 2 12 2 13 0 C14.98 0 16.96 0 19 0 C18.57847656 0.76183594 18.15695313 1.52367188 17.72265625 2.30859375 C14.32174643 8.71830849 12.24233649 13.7299052 12 21 C10.35 21 8.7 21 7 21 C6.91363281 20.38253906 6.82726562 19.76507813 6.73828125 19.12890625 C5.76926975 13.28816724 4.13651678 8.85100982 1.0234375 3.8125 C0 2 0 2 0 0 Z " fill="#5B8E4A" transform="translate(64,121)"/>
<path d="M0 0 C2.4375 0.875 2.4375 0.875 4.4375 3.875 C4.8891129 10.19758065 4.8891129 10.19758065 2.4375 13.875 C-0.5 14.3125 -0.5 14.3125 -3.5625 13.875 C-5.5 12.3125 -5.5 12.3125 -6.5625 9.875 C-6.43960272 6.37242745 -6.18448338 3.87017341 -4.3125 0.875 C-2.5625 -0.125 -2.5625 -0.125 0 0 Z " fill="#679756" transform="translate(153.5625,151.125)"/>
<path d="M0 0 C4.29425875 1.07356469 4.74740471 1.5084773 7 5 C7.33 3.35 7.66 1.7 8 0 C8.99 0 9.98 0 11 0 C11 4.29 11 8.58 11 13 C10.01 13 9.02 13 8 13 C5.8125 10 5.8125 10 4 7 C3.67 8.98 3.34 10.96 3 13 C2.01 13 1.02 13 0 13 C0 8.71 0 4.42 0 0 Z " fill="#649453" transform="translate(65,152)"/>
<path d="M0 0 C3.0625 0.3125 3.0625 0.3125 4.9375 1.5 C6.46909584 3.96757108 6.49072025 5.45769831 6.0625 8.3125 C4.875 10.125 4.875 10.125 3.0625 11.3125 C0.20769831 11.74072025 -1.28242892 11.71909584 -3.75 10.1875 C-5.46599028 7.47804166 -5.271228 5.44954316 -4.9375 2.3125 C-2.9375 0.3125 -2.9375 0.3125 0 0 Z " fill="#EBF8DD" transform="translate(138.9375,125.6875)"/>
<path d="M0 0 C0.99 0.33 1.98 0.66 3 1 C10.30029507 3.05229179 16.81893121 1.86175857 24 0 C24 1.98 24 3.96 24 6 C16.08 6 8.16 6 0 6 C0 4.02 0 2.04 0 0 Z " fill="#89C561" transform="translate(102,73)"/>
<path d="M0 0 C0.763125 0.20625 1.52625 0.4125 2.3125 0.625 C2.3125 1.945 2.3125 3.265 2.3125 4.625 C-0.1625 3.635 -0.1625 3.635 -2.6875 2.625 C-2.6875 3.615 -2.6875 4.605 -2.6875 5.625 C-1.883125 5.769375 -1.07875 5.91375 -0.25 6.0625 C2.3125 6.625 2.3125 6.625 3.3125 7.625 C3.4375 10.125 3.4375 10.125 3.3125 12.625 C2.3125 13.625 2.3125 13.625 -0.625 13.75 C-3.6875 13.625 -3.6875 13.625 -5.6875 12.625 C-5.6875 11.635 -5.6875 10.645 -5.6875 9.625 C-2.7175 10.12 -2.7175 10.12 0.3125 10.625 C-0.6775 9.965 -1.6675 9.305 -2.6875 8.625 C-3.6775 7.965 -4.6675 7.305 -5.6875 6.625 C-6.0625 4.125 -6.0625 4.125 -5.6875 1.625 C-2.6875 -0.375 -2.6875 -0.375 0 0 Z " fill="#5D8F4C" transform="translate(41.6875,151.375)"/>
<path d="M0 0 C0.66 0.33 1.32 0.66 2 1 C2 1.99 2 2.98 2 4 C0.865625 3.814375 -0.26875 3.62875 -1.4375 3.4375 C-2.613125 3.293125 -3.78875 3.14875 -5 3 C-6.29633621 4.06645115 -6.29633621 4.06645115 -6.0625 6.5625 C-6.041875 7.366875 -6.02125 8.17125 -6 9 C-2.71303767 9.79953138 -1.28976808 10.09658936 2 9 C2 9.99 2 10.98 2 12 C-0.84083641 13.42041821 -2.85477278 13.31452272 -6 13 C-8.375 11.375 -8.375 11.375 -10 9 C-10.45319325 5.82764724 -10.52990283 3.93512264 -8.9375 1.125 C-5.96164925 -0.60291334 -3.36405631 -0.24465864 0 0 Z " fill="#639452" transform="translate(94,152)"/>
<path d="M0 0 C2.97 0 5.94 0 9 0 C9 0.66 9 1.32 9 2 C6.69 2 4.38 2 2 2 C2 2.99 2 3.98 2 5 C3.98 5 5.96 5 8 5 C8 5.99 8 6.98 8 8 C6.02 8 4.04 8 2 8 C2 8.99 2 9.98 2 11 C4.31 11 6.62 11 9 11 C9 11.66 9 12.32 9 13 C6.03 13 3.06 13 0 13 C0 8.71 0 4.42 0 0 Z " fill="#588C48" transform="translate(105,152)"/>
<path d="M0 0 C0.763125 0.20625 1.52625 0.4125 2.3125 0.625 C3.0625 2.8125 3.0625 2.8125 3.3125 5.625 C1.375 8.4375 1.375 8.4375 -0.6875 10.625 C0.6325 10.955 1.9525 11.285 3.3125 11.625 C3.3125 12.285 3.3125 12.945 3.3125 13.625 C0.3425 13.625 -2.6275 13.625 -5.6875 13.625 C-4.61623573 9.33994293 -3.71466023 8.55756147 -0.6875 5.625 C-0.3575 4.635 -0.0275 3.645 0.3125 2.625 C-1.6675 2.955 -3.6475 3.285 -5.6875 3.625 C-5.6875 2.965 -5.6875 2.305 -5.6875 1.625 C-2.6875 -0.375 -2.6875 -0.375 0 0 Z " fill="#659554" transform="translate(171.6875,151.375)"/>
<path d="M0 0 C2.64 0 5.28 0 8 0 C7.814375 0.804375 7.62875 1.60875 7.4375 2.4375 C7.2209375 3.7059375 7.2209375 3.7059375 7 5 C7.33 5.33 7.66 5.66 8 6 C8.04080783 7.99958364 8.04254356 10.00045254 8 12 C1.25 13.125 1.25 13.125 -1 12 C-0.67 11.01 -0.34 10.02 0 9 C1.65 9.33 3.3 9.66 5 10 C5 9.34 5 8.68 5 8 C4.01 7.67 3.02 7.34 2 7 C2.33 5.68 2.66 4.36 3 3 C2.01 2.67 1.02 2.34 0 2 C0 1.34 0 0.68 0 0 Z " fill="#5C8E4B" transform="translate(184,152)"/>
<path d="M0 0 C2.9375 0.1875 2.9375 0.1875 3.9375 1.1875 C4.25 3.5 4.25 3.5 3.9375 6.1875 C1.9375 8.5 1.9375 8.5 -0.0625 10.1875 C1.2575 10.5175 2.5775 10.8475 3.9375 11.1875 C3.9375 11.8475 3.9375 12.5075 3.9375 13.1875 C0.9675 13.1875 -2.0025 13.1875 -5.0625 13.1875 C-3.0625 9.1875 -3.0625 9.1875 -1.5 7.6875 C0.20066011 5.91289815 0.52544182 4.57743744 0.9375 2.1875 C-1.0425 3.1775 -1.0425 3.1775 -3.0625 4.1875 C-3.7225 3.5275 -4.3825 2.8675 -5.0625 2.1875 C-3.0625 0.1875 -3.0625 0.1875 0 0 Z " fill="#5C8E4B" transform="translate(135.0625,151.8125)"/>
<path d="M0 0 C0.37125 0.515625 0.7425 1.03125 1.125 1.5625 C5.06371039 6.68282351 8.37930292 10.6937076 14 14 C14 14.99 14 15.98 14 17 C6.88237406 15.47479444 3.83807996 10.75711994 0 5 C-0.125 2.3125 -0.125 2.3125 0 0 Z " fill="#CACE9F" transform="translate(88,59)"/>
<path d="M0 0 C0.66 0 1.32 0 2 0 C2 4.29 2 8.58 2 13 C1.01 13 0.02 13 -1 13 C-4 9.66666667 -4 9.66666667 -4 7 C-2.68 7 -1.36 7 0 7 C0 4.69 0 2.38 0 0 Z " fill="#588B47" transform="translate(74,152)"/>
<path d="M0 0 C0.99 0 1.98 0 3 0 C3 4.29 3 8.58 3 13 C2.01 13 1.02 13 0 13 C0 8.71 0 4.42 0 0 Z " fill="#6B995A" transform="translate(54,152)"/>
<path d="M0 0 C1.98 0.495 1.98 0.495 4 1 C4 3.31 4 5.62 4 8 C2.68 8 1.36 8 0 8 C-0.33 7.67 -0.66 7.34 -1 7 C-0.71269945 4.66055264 -0.38063221 2.3260857 0 0 Z " fill="#E2F2D4" transform="translate(151,154)"/>
<path d="M0 0 C2.5 0.3125 2.5 0.3125 5 1 C6.4783226 3.95664519 6.06032783 6.74229737 6 10 C5.01 10 4.02 10 3 10 C2.896875 8.88625 2.79375 7.7725 2.6875 6.625 C2.460625 5.42875 2.23375 4.2325 2 3 C1.01 2.34 0.02 1.68 -1 1 C-0.67 0.67 -0.34 0.34 0 0 Z " fill="#5D904D" transform="translate(152,152)"/>
<path d="M0 0 C0.763125 0.20625 1.52625 0.4125 2.3125 0.625 C2.3125 1.945 2.3125 3.265 2.3125 4.625 C-0.1625 3.635 -0.1625 3.635 -2.6875 2.625 C-3.3475 3.945 -4.0075 5.265 -4.6875 6.625 C-5.0175 6.625 -5.3475 6.625 -5.6875 6.625 C-5.875 4.25 -5.875 4.25 -5.6875 1.625 C-2.6875 -0.375 -2.6875 -0.375 0 0 Z " fill="#699859" transform="translate(41.6875,151.375)"/>
<path d="M0 0 C1.98 0.99 1.98 0.99 4 2 C4 2.66 4 3.32 4 4 C7.3 4 10.6 4 14 4 C14 4.33 14 4.66 14 5 C9.38 5.33 4.76 5.66 0 6 C0 4.02 0 2.04 0 0 Z " fill="#90C869" transform="translate(102,73)"/>
<path d="M0 0 C1.65 0 3.3 0 5 0 C5.33 1.32 5.66 2.64 6 4 C4.02 4 2.04 4 0 4 C0 2.68 0 1.36 0 0 Z " fill="#E5F4D7" transform="translate(162,126)"/>
<path d="M0 0 C0.33 0.66 0.66 1.32 1 2 C3.02463255 2.65213292 3.02463255 2.65213292 5 3 C5 3.66 5 4.32 5 5 C2.36 5 -0.28 5 -3 5 C-1.125 1.125 -1.125 1.125 0 0 Z " fill="#548843" transform="translate(170,160)"/>
<path d="M0 0 C0.33 0.99 0.66 1.98 1 3 C-0.423125 3.928125 -0.423125 3.928125 -1.875 4.875 C-4.94445109 6.81970969 -4.94445109 6.81970969 -7 9 C-6.82374165 6.62051228 -6.30280227 5.29774151 -4.59765625 3.62109375 C-3.09350908 2.37884514 -1.54870149 1.18623944 0 0 Z " fill="#6E9C5E" transform="translate(173,156)"/>
<path d="M0 0 C2.00720923 0.28674418 4.0085944 0.61866701 6 1 C6 1.99 6 2.98 6 4 C3.625 4.1875 3.625 4.1875 1 4 C0.34 3.01 -0.32 2.02 -1 1 C-0.67 0.67 -0.34 0.34 0 0 Z " fill="#E4F3D6" transform="translate(92,133)"/>
<path d="M0 0 C2.64 0 5.28 0 8 0 C7.34 1.32 6.68 2.64 6 4 C4.02 3.34 2.04 2.68 0 2 C0 1.34 0 0.68 0 0 Z " fill="#DBEDCD" transform="translate(94,126)"/>
<path d="M0 0 C2.31 0.33 4.62 0.66 7 1 C7 1.99 7 2.98 7 4 C4.36 3.34 1.72 2.68 -1 2 C-0.67 1.34 -0.34 0.68 0 0 Z " fill="#588B47" transform="translate(89,152)"/>
</svg>
